<svg width="16" height="16" viewBox="0 0 16 16" fill="none" xmlns="http://www.w3.org/2000/svg">
<rect width="16" height="16" rx="4" fill="#EAC059"/>
<path d="M10.5 9C10.38 8.88 10.28 8.75 10.175 8.625C10.75 7.75 11.5 6.28 11.5 4.5C11.5 3.525 11.13 3 10.5 3C9.73 3 8.52 4.03 8 5.985C7.48 4.03 6.27 3 5.5 3C4.87 3 4.5 3.525 4.5 4.5C4.5 6.28 5.25 7.75 5.825 8.625C5.72 8.75 5.62 8.88 5.5 9C5.375 9.125 4.5 9.695 4.5 10.75C4.5 12 5.5 13 6.75 13C7.5 13 8 12.75 8 12.75C8 12.75 8.5 13 9.25 13C10.5 13 11.5 12 11.5 10.75C11.5 9.695 10.625 9.125 10.5 9ZM10.44 4.015C10.47 4.1 10.5 4.25 10.5 4.5C10.5 5.92 9.945 7.12 9.465 7.89C9.275 7.75 9.05 7.65 8.765 7.58C8.885 5.32 9.985 4.165 10.44 4.015M5.5 4.5C5.5 4.25 5.53 4.1 5.56 4.015C6.015 4.165 7.115 5.32 7.25 7.58C6.95 7.65 6.725 7.75 6.54 7.89C6.055 7.12 5.5 5.92 5.5 4.5ZM9.25 12C8.75 12 8.35 11.835 8.14 11.72C8.35 11.63 8.5 11.365 8.5 11.25C8.5 11.11 8.275 11 8 11C7.725 11 7.5 11.11 7.5 11.25C7.5 11.365 7.65 11.63 7.86 11.72C7.65 11.835 7.25 12 6.75 12C6.41848 12 6.10054 11.8683 5.86612 11.6339C5.6317 11.3995 5.5 11.0815 5.5 10.75C5.5 10.4 5.715 10.13 6 9.885C6.22 9.705 6.305 9.625 6.65 9.2C7.03 8.725 7.195 8.5 8 8.5C8.805 8.5 8.97 8.725 9.35 9.2C9.695 9.625 9.78 9.705 10 9.885C10.285 10.13 10.5 10.4 10.5 10.75C10.5 11.0815 10.3683 11.3995 10.1339 11.6339C9.89946 11.8683 9.58152 12 9.25 12M9 10C9 10.205 8.89 10.375 8.75 10.375C8.61 10.375 8.5 10.205 8.5 10C8.5 9.795 8.61 9.625 8.75 9.625C8.89 9.625 9 9.795 9 10ZM7.5 10C7.5 10.205 7.39 10.375 7.25 10.375C7.11 10.375 7 10.205 7 10C7 9.795 7.11 9.625 7.25 9.625C7.39 9.625 7.5 9.795 7.5 10Z" fill="#232424"/>
</svg>
