<svg width="23" height="23" viewBox="0 0 23 23" fill="none" xmlns="http://www.w3.org/2000/svg">
<path d="M0.675 11.6832L0.596479 11.6455C0.423098 11.5469 0.283259 11.398 0.195224 11.2181C0.0690574 10.9973 0.00180076 10.7474 0 10.4926L0.01873 10.3678C0.01873 10.1748 0.0677162 10.0014 0.154162 9.83528L0.232684 9.69162C0.270144 9.61254 0.326334 9.54434 0.37532 9.47977C0.401939 9.44775 0.420329 9.40962 0.428872 9.36876C0.437414 9.32789 0.435847 9.28553 0.424307 9.24542L0.37532 9.09016C0.316896 8.90289 0.28536 8.70817 0.28167 8.51191L0.251414 8.3951C0.251414 8.17962 0.307604 7.96777 0.443037 7.81323L0.540289 7.68844C0.608005 7.59049 0.713181 7.53318 0.829163 7.49545C0.922813 7.46498 0.990529 7.36703 1.00206 7.25385L1.02079 6.92518C1.02079 6.66472 1.14469 6.42239 1.33631 6.24464L1.569 6.07051C1.61438 6.0248 1.66265 5.97619 1.70011 5.89638C1.74909 5.83979 1.7599 5.75998 1.74909 5.70339C1.73036 5.60908 1.74909 5.5786 1.79808 5.56699C1.95224 5.62721 2.04949 5.60835 2.11721 5.52927L2.24112 5.36675L2.58618 4.97787C2.63629 4.92511 2.67006 4.8588 2.68337 4.78704C2.69667 4.71527 2.68894 4.64116 2.6611 4.57375L2.54872 4.32054C2.52999 4.26395 2.54872 4.19575 2.59771 4.17688C2.72161 4.17688 2.80806 4.22259 2.84552 4.30167L2.88298 4.36987C2.94277 4.48668 3.0782 4.544 3.17185 4.49466C3.34734 4.43071 3.53273 4.39877 3.71935 4.40035H4.02695C4.2373 4.40035 4.40947 4.25306 4.45126 4.03033C4.48872 3.76188 4.58237 3.5464 4.7178 3.40274C4.86404 3.2366 5.0254 3.11181 5.21703 3.01386C5.46844 2.88182 5.6226 2.6852 5.67087 2.43562C5.73858 2.12582 5.89995 1.90308 6.12111 1.75942L6.85302 1.3437L7.06337 1.21528C7.18728 1.13982 7.30326 1.04115 7.40123 0.924341L7.59285 0.693623C7.67514 0.601214 7.78183 0.534281 7.90046 0.500633C7.99411 0.47016 8.12954 0.451297 8.24552 0.462905L8.62805 0.489024C8.81967 0.489024 8.97311 0.53836 9.12727 0.605834L9.22453 0.65517C9.32178 0.692898 9.41615 0.674034 9.46441 0.605834L9.55086 0.556498L9.96364 0.121907C10.0059 0.0757508 10.0589 0.0409092 10.1179 0.0205186C10.1769 0.00012799 10.24 -0.00517155 10.3015 0.00509704C10.4254 0.0239608 10.5493 0.0732967 10.6653 0.133515C10.8382 0.227834 10.9808 0.265562 11.1458 0.265562H11.243C11.4534 0.265562 11.663 0.296034 11.877 0.344644L12.0196 0.382372C12.0896 0.399698 12.1632 0.396016 12.2311 0.37178C12.2991 0.347544 12.3585 0.303812 12.4021 0.245972C12.4089 0.234664 12.4181 0.225022 12.429 0.217754C12.44 0.210485 12.4524 0.205774 12.4654 0.203966C12.4784 0.202157 12.4916 0.203297 12.5041 0.207301C12.5166 0.211306 12.528 0.218073 12.5376 0.227109C12.5678 0.245972 12.575 0.264836 12.5866 0.295308C12.6053 0.488299 12.722 0.635581 12.8754 0.680564L13.0296 0.7299C13.191 0.779235 13.3372 0.885163 13.4309 1.02084C13.5281 1.16449 13.6448 1.31177 13.7759 1.40609L13.8732 1.50404C13.9209 1.55063 13.9783 1.58598 14.0412 1.60756C14.1041 1.62914 14.1709 1.6364 14.237 1.62883H14.8032C15.0359 1.62883 15.257 1.67018 15.4789 1.76523C15.6893 1.86317 15.9104 1.88204 16.1092 1.80296C16.3232 1.73838 16.5444 1.70864 16.7655 1.73838L17.1783 1.80296C17.3699 1.82545 17.5608 1.91977 17.6775 2.06777L17.7265 2.11348C17.8202 2.21143 17.9181 2.33622 18.0118 2.47262C18.043 2.53211 18.0901 2.58167 18.1478 2.61575C18.2054 2.64984 18.2713 2.6671 18.3381 2.66561H18.9346C19.0808 2.66561 19.2235 2.69608 19.3402 2.76355C19.4641 2.85787 19.5693 2.95654 19.6665 3.05449L19.7602 3.17928C19.8761 3.31568 19.933 3.49706 19.9251 3.69296C19.9251 3.84822 20.0411 3.98026 20.1917 3.98026L20.3869 4.00276C20.5223 4.00276 20.6347 4.09707 20.7024 4.22187L20.7997 4.41848L21.0475 4.97787C21.0836 5.06366 21.0977 5.15722 21.0885 5.24994C21.0885 5.34426 21.1145 5.42407 21.1822 5.46179L21.2794 5.52999C21.3414 5.5767 21.3901 5.63908 21.4204 5.71081C21.4508 5.78254 21.4618 5.86107 21.4523 5.93847L21.3846 6.39192L21.3659 6.58491C21.358 6.6394 21.3646 6.69502 21.385 6.74612C21.4053 6.79722 21.4388 6.84198 21.4819 6.87585C21.6245 6.97017 21.6922 7.09859 21.6994 7.24224V7.43523C21.6994 7.53318 21.6807 7.65071 21.6058 7.72617C21.5417 7.80932 21.5074 7.91185 21.5085 8.0171L21.5388 8.23984C21.5388 8.3951 21.6324 8.53078 21.7304 8.6251C21.7944 8.67403 21.8479 8.7354 21.8879 8.80557C21.9278 8.87573 21.9534 8.95326 21.9631 9.03357C22.0005 9.27517 22.0085 9.46816 22.0085 9.66115V9.88389C22.0085 9.96297 22.0085 10.0391 22.0387 10.1146C22.0602 10.1856 22.1036 10.2479 22.1626 10.2924L22.3543 10.436C22.5495 10.5608 22.6842 10.727 22.7598 10.9497C22.8571 11.1615 22.8837 11.3843 22.8837 11.607V11.6825C22.8837 11.8566 22.865 12.0416 22.8088 12.2041C22.7602 12.3634 22.7694 12.535 22.8348 12.6881C22.9133 12.8245 22.9623 12.979 22.981 13.1451C23.0185 13.3381 22.9997 13.5304 22.932 13.6857L22.9133 13.7539C22.8634 13.8724 22.7878 13.9783 22.6921 14.0637C22.5949 14.1616 22.5005 14.2189 22.4443 14.2864C22.3845 14.343 22.3471 14.4417 22.3766 14.528L22.4025 14.6644C22.4515 14.8574 22.4515 15.0496 22.4025 15.2238V15.3029C22.3651 15.4465 22.3089 15.5713 22.2484 15.6881C22.1836 15.8111 22.0844 15.9123 21.9631 15.979L21.8169 16.0734C21.7814 16.0969 21.7523 16.1289 21.7321 16.1665C21.7119 16.2041 21.7012 16.2461 21.7009 16.2888C21.7016 16.3809 21.6682 16.4699 21.6072 16.5384L21.461 16.735C21.3673 16.8598 21.2434 16.9658 21.108 17.0224C20.9861 17.1079 20.873 17.2054 20.7701 17.3133C20.6738 17.4267 20.6021 17.5592 20.5598 17.7022C20.5467 17.7777 20.5074 17.8461 20.449 17.8952C20.3906 17.9444 20.3168 17.9711 20.2407 17.9706H19.7227C19.5873 17.9706 19.4641 18.0686 19.4072 18.1861C19.3529 18.3158 19.2783 18.4359 19.186 18.5416C19.0934 18.6394 19.0263 18.7588 18.9908 18.8891C18.9721 19.0059 18.8784 19.0858 18.7804 19.0444C18.7262 19.0195 18.6647 19.0157 18.6079 19.0338C18.5511 19.0519 18.5029 19.0906 18.4728 19.1423C18.3757 19.3121 18.2571 19.4685 18.1198 19.6074L18.0521 19.664C17.9246 19.7619 17.7632 19.8381 17.617 19.8381C17.4441 19.8381 17.3584 19.9172 17.3317 20.0311C17.3014 20.1397 17.2814 20.251 17.2719 20.3634C17.2514 20.4722 17.22 20.5787 17.1783 20.6812L17.1293 20.7378C17.0321 20.8851 16.9564 21.0287 16.8592 21.1535L16.8217 21.2137C16.6978 21.3762 16.5328 21.5047 16.3412 21.5504C16.137 21.6192 15.9226 21.6523 15.7073 21.6483H15.5718C15.5195 21.6514 15.4687 21.6671 15.4237 21.6941C15.3787 21.7211 15.3408 21.7587 15.3132 21.8036L15.257 21.9015L15.1972 22.0147L15.0733 22.2302C15.0277 22.3139 14.9661 22.3878 14.8921 22.4474C14.818 22.5071 14.733 22.5514 14.6418 22.5777C14.4407 22.6272 14.2333 22.6463 14.0266 22.6343L13.8724 22.6155C13.737 22.6155 13.6138 22.5777 13.4899 22.5175C13.3927 22.4798 13.2572 22.5175 13.201 22.6155C13.1189 22.7348 13.0002 22.8237 12.8632 22.8687L12.5743 22.963C12.3758 23.0123 12.1684 23.0123 11.9699 22.963L11.8158 22.9136C11.719 22.9068 11.6258 22.8743 11.5456 22.8193C11.4582 22.7722 11.3592 22.7513 11.2603 22.7591L11.1328 22.7816C10.9412 22.8005 10.769 22.7816 10.5961 22.7323L10.3375 22.672C10.2181 22.6345 10.1158 22.5556 10.0486 22.4493C10.0189 22.3966 9.97725 22.3516 9.92706 22.3181C9.87688 22.2846 9.81958 22.2634 9.75977 22.2563H9.45217C9.26054 22.2302 9.08837 22.162 8.97167 22.0147L8.58915 21.6483L8.45371 21.5315L8.24336 21.3762L8.11946 21.2819C7.96973 21.1777 7.79723 21.1115 7.61663 21.0889L7.04248 20.991C6.98269 20.991 6.94523 20.9721 6.88832 20.9605L6.66716 20.9112C6.56991 20.8923 6.47554 20.8169 6.40854 20.7182C6.35235 20.6239 6.24357 20.5818 6.14992 20.6239C5.9583 20.6993 5.80486 20.7182 5.6507 20.7487H5.51527C5.27082 20.7699 5.02508 20.7269 4.80208 20.6239C4.573 20.5259 4.41956 20.3823 4.27692 20.1965C4.21888 20.111 4.14455 20.0378 4.05823 19.9814C3.97192 19.925 3.87534 19.8864 3.7741 19.8679L3.50755 19.8113C3.30811 19.7697 3.11837 19.6902 2.94853 19.5769C2.75691 19.4405 2.65966 19.3165 2.58474 19.1612C2.50675 19.0111 2.46063 18.8463 2.44931 18.6773V18.6018C2.43058 18.4052 2.29515 18.2318 2.11505 18.1861C1.91998 18.1288 1.73957 18.0295 1.58629 17.8952C1.51844 17.8305 1.46446 17.7525 1.42766 17.6661C1.39087 17.5796 1.37204 17.4865 1.37233 17.3924L1.39466 16.965C1.39466 16.7989 1.34568 16.6552 1.2297 16.5493C1.11371 16.4325 1.03807 16.2888 1.03807 16.1336L1.00782 15.7861C0.984804 15.5314 0.943393 15.2787 0.883912 15.0301C0.827722 14.8073 0.914168 14.5839 1.09426 14.4787L1.16198 14.4293C1.21055 14.3964 1.24539 14.3466 1.25987 14.2895C1.27436 14.2324 1.26746 14.1719 1.2405 14.1195L1.16198 14.0252C1.08428 13.9363 0.984617 13.8697 0.873106 13.8322C0.798186 13.8097 0.779456 13.7343 0.779456 13.6849L0.873106 13.5681C0.899559 13.5356 0.914012 13.4948 0.914012 13.4528C0.914012 13.4107 0.899559 13.3699 0.873106 13.3374C0.803162 13.2629 0.759603 13.1673 0.7492 13.0653L0.73047 12.3891C0.73047 12.2527 0.7492 12.1171 0.78666 11.985C0.827722 11.8682 0.78666 11.7318 0.67428 11.6752L0.675 11.6832ZM10.1826 10.4055C10.2504 10.3373 10.2388 10.2126 10.1826 10.1639C10.0923 10.093 10.0171 10.0044 9.96148 9.90348L9.86423 9.74821C9.7993 9.62621 9.71567 9.5153 9.61642 9.41955L9.59769 9.40069C9.50215 9.32269 9.42636 9.22298 9.37653 9.10975C9.35244 9.0651 9.33982 9.01509 9.33982 8.96428C9.33982 8.91347 9.35244 8.86346 9.37653 8.81881L9.43272 8.72449C9.49429 8.61901 9.52778 8.49931 9.52997 8.37696V8.33561C9.52503 8.23253 9.49133 8.13295 9.43272 8.0483C9.39035 7.9619 9.35889 7.8705 9.33907 7.77623V7.71964C9.32508 7.66091 9.32455 7.59975 9.33753 7.54079C9.35051 7.48183 9.37666 7.42663 9.41399 7.37936C9.49251 7.25457 9.54942 7.13776 9.57896 6.99411V6.97162C9.59604 6.91891 9.60123 6.86303 9.59412 6.80805C9.58702 6.75307 9.56781 6.70038 9.53789 6.65384C9.50871 6.60845 9.49018 6.55696 9.48369 6.50329C9.47719 6.44961 9.48292 6.39515 9.50043 6.34404L9.56815 6.15104C9.62434 5.97692 9.71439 5.82238 9.82677 5.68598L9.9622 5.54233L10.0595 5.42552L10.1156 5.36893C10.1441 5.33746 10.1613 5.29738 10.1647 5.25497C10.1681 5.21257 10.1574 5.17022 10.1344 5.13458C10.0835 5.04678 10.0637 4.94423 10.0782 4.84364L10.0969 4.70724C10.1272 4.51425 10.1942 4.32199 10.3181 4.16673L10.3555 4.129C10.4982 3.93601 10.6819 3.80759 10.8922 3.74011L11.1552 3.6458C11.2675 3.60807 11.3468 3.47965 11.3468 3.35486C11.3468 3.1996 11.3958 3.06392 11.4815 2.93913L11.5269 2.8898C11.6241 2.72728 11.7408 2.56113 11.8158 2.38701L11.8835 2.26221C11.9018 2.23277 11.9123 2.19901 11.9137 2.16427C11.9137 2.00175 11.8165 1.85447 11.6623 1.84649L11.2423 1.81601C11.0024 1.79715 10.7618 1.81601 10.5291 1.81601L9.71511 1.91396C9.5876 1.91396 9.49395 2.00828 9.48242 2.14468C9.48098 2.20898 9.46005 2.27131 9.42246 2.3233C9.38486 2.3753 9.33239 2.41449 9.27207 2.43562L8.92701 2.52993L8.82976 2.56041L8.54088 2.65835C8.43523 2.69324 8.33794 2.7499 8.25522 2.82472C8.1725 2.89954 8.10614 2.99089 8.06038 3.09294L7.98546 3.21774C7.88656 3.43198 7.72558 3.61106 7.5237 3.73141C7.33208 3.8562 7.23482 4.06007 7.21609 4.29079V4.38874C7.19736 4.58173 7.13757 4.77399 7.02447 4.91039L6.97548 4.98947C6.9374 5.03404 6.91259 5.08854 6.90392 5.14669C6.89525 5.20484 6.90308 5.26427 6.9265 5.31814C6.97548 5.43132 7.00502 5.55974 6.99422 5.68453V6.1982C6.99273 6.25949 6.97391 6.31909 6.93997 6.36998C6.90603 6.42087 6.85837 6.46095 6.80259 6.48551C6.73896 6.50869 6.68203 6.5474 6.6369 6.59817C6.59176 6.64895 6.55984 6.7102 6.54397 6.77645L6.49499 6.96944C6.47456 7.06348 6.4818 7.16147 6.51584 7.25142C6.54987 7.34137 6.60922 7.41937 6.68661 7.47586C6.84077 7.58904 6.93802 7.76317 6.97548 7.97865V8.15278C7.00574 8.34577 7.11092 8.53803 7.28309 8.6367C7.45598 8.75351 7.59069 8.92764 7.66561 9.12063L7.7146 9.27589C7.74706 9.37156 7.80602 9.45586 7.88453 9.51886C7.96303 9.58186 8.0578 9.62091 8.15764 9.6314H8.21383C8.38672 9.6314 8.54016 9.72935 8.63813 9.88461C8.73178 10.0399 8.88595 10.1451 9.05812 10.1755L9.32826 10.251C9.49323 10.3003 9.64739 10.3874 9.7713 10.5115L9.79003 10.534C9.84094 10.5718 9.9043 10.5886 9.96712 10.5809C10.0299 10.5732 10.0875 10.5416 10.1279 10.4926L10.1956 10.4171L10.1826 10.4055ZM11.2776 9.5175C11.3713 9.57409 11.4692 9.54361 11.5067 9.45728L11.537 9.41157C11.6047 9.27517 11.6911 9.13949 11.7848 9.02269L11.98 8.73175C12.0059 8.73175 12.0175 8.71288 12.0254 8.69402L12.2581 8.38422C12.3553 8.2899 12.4684 8.2217 12.6031 8.2217C12.6649 8.22201 12.7253 8.20383 12.7767 8.16947C12.8282 8.1351 12.8683 8.08611 12.892 8.02871C12.9295 7.89231 12.9857 7.76389 13.1024 7.65869L13.1513 7.6021C13.2486 7.50415 13.343 7.45482 13.4402 7.40911C13.5641 7.39025 13.6801 7.36776 13.7968 7.36776H14.0821C14.1981 7.36776 14.296 7.32205 14.3522 7.2241C14.4084 7.12615 14.4949 7.06158 14.5921 7.01225L14.6894 6.97089C14.8435 6.90632 15.0157 6.85771 15.1886 6.83885L15.3802 6.81998C15.4962 6.81998 15.6201 6.81998 15.7368 6.88455C15.8305 6.95275 15.958 6.94477 16.0523 6.86569L16.12 6.82796C16.2627 6.73002 16.4277 6.65384 16.6005 6.63497H16.6193C16.8037 6.60233 16.9914 6.5921 17.1783 6.6045H17.2719C17.4636 6.63497 17.6285 6.70245 17.7524 6.8461L17.7827 6.88383C17.8799 6.98177 18.0305 7.06158 18.1652 7.06158H18.3302C18.3792 7.06158 18.4238 7.03909 18.4541 6.99338C18.4867 6.95867 18.5308 6.93723 18.578 6.93316H18.6753C18.8107 6.93316 18.9339 6.97089 19.0578 7.01225L19.2227 7.08045C19.3769 7.12615 19.5383 7.17477 19.7032 7.19363H19.8192C19.8941 7.19363 19.9431 7.14792 19.9431 7.08045C19.9467 6.98511 19.9232 6.89073 19.8754 6.80837L19.8077 6.65311C19.7328 6.52832 19.6723 6.39265 19.6161 6.26786L19.5973 6.21852C19.5733 6.17387 19.5606 6.12386 19.5606 6.07305C19.5606 6.02224 19.5733 5.97223 19.5973 5.92758V5.87825C19.6069 5.83968 19.6023 5.79895 19.5844 5.76351C19.5665 5.72807 19.5366 5.70029 19.5001 5.68526H19.4252C19.2734 5.63946 19.1389 5.54869 19.039 5.42479L18.9454 5.32684C18.8481 5.23253 18.7912 5.08524 18.7502 4.94159C18.7048 4.8168 18.6003 4.71885 18.4649 4.71885H18.0593C17.989 4.70888 17.9213 4.68504 17.8601 4.64869C17.7989 4.61234 17.7454 4.56419 17.7027 4.507L17.6653 4.45766C17.5959 4.3566 17.5415 4.24588 17.5039 4.129C17.4549 4.03105 17.3497 3.97374 17.2525 4.00421L17.1365 4.04193C16.9449 4.11013 16.754 4.13625 16.5624 4.11739L16.4082 4.09853C16.2432 4.09853 16.0891 4.03033 15.9652 3.93601L15.8679 3.86781C15.7948 3.81106 15.714 3.76513 15.628 3.73141C15.5344 3.69368 15.4551 3.71255 15.3989 3.78074L15.35 3.83734C15.2525 3.93946 15.1249 4.00715 14.9862 4.03033L14.4682 4.0608C14.3702 4.0645 14.2775 4.10638 14.2096 4.17761C14.1352 4.24451 14.0444 4.29011 13.9466 4.30965H13.9279C13.8343 4.30965 13.7363 4.37785 13.6426 4.44605V4.46492C13.5971 4.51154 13.5429 4.54857 13.483 4.57386C13.4232 4.59915 13.3589 4.61218 13.294 4.6122L13.2565 4.63106C13.1405 4.63106 13.0274 4.63106 12.9115 4.66154H12.7955C12.6341 4.68765 12.5066 4.82405 12.4691 4.99818L12.4317 5.22092C12.4008 5.37264 12.3352 5.515 12.2401 5.63665C12.1428 5.75346 12.0261 5.82964 11.8835 5.82964H11.7221C11.6248 5.85213 11.5269 5.95805 11.5456 6.07124C11.5679 6.23738 11.5456 6.38104 11.5197 6.52832L11.4822 6.69084C11.4657 6.75968 11.4333 6.82362 11.3876 6.87745C11.3419 6.93128 11.2842 6.97349 11.2193 7.00064L11.1631 7.03111H11.1444C11.0882 7.06884 11.0471 7.1559 11.0954 7.2241C11.1507 7.31024 11.1747 7.41308 11.1631 7.51504L11.1328 7.82484C11.1267 7.93667 11.0946 8.04551 11.0392 8.14262C11.0116 8.18544 10.9954 8.23468 10.9921 8.28563C10.9888 8.33657 10.9986 8.3875 11.0204 8.43356L11.1141 8.64541C11.1634 8.7409 11.1743 8.85187 11.1444 8.95521C11.1115 9.0484 11.0987 9.14759 11.1069 9.24615C11.1069 9.34409 11.1631 9.43914 11.2423 9.48049L11.2776 9.5175ZM18.8647 16.5123C18.962 16.6066 19.1046 16.6444 19.2213 16.5689L19.4129 16.4441C19.5139 16.3741 19.5881 16.2715 19.6233 16.1532V16.1343L19.7205 15.8434L19.7767 15.7454L19.8178 15.6511L19.8552 15.5829C19.8728 15.5425 19.8991 15.5067 19.9323 15.4779C19.9655 15.4491 20.0046 15.4283 20.0469 15.4168L20.0843 15.3979C20.1628 15.379 20.2118 15.3036 20.2118 15.2238C20.2118 15.1295 20.2572 15.0496 20.3055 14.9822L20.384 14.914L20.5756 14.6644V14.6455C20.6317 14.5661 20.6711 14.476 20.6916 14.3807C20.7075 14.283 20.6932 14.1827 20.6505 14.0934L20.6318 14.052C20.5982 13.9723 20.5754 13.8883 20.5641 13.8025L20.5382 13.5304L20.5079 13.2395C20.5079 13.1451 20.5454 13.0465 20.6052 12.9521C20.6693 12.8731 20.7175 12.7744 20.7593 12.6801V12.6423L20.7781 12.6235C20.7968 12.5255 20.7478 12.4269 20.6621 12.4269C20.5648 12.3812 20.4705 12.3021 20.4409 12.1853L20.4107 12.1287C20.3636 11.9587 20.3384 11.7834 20.3357 11.607L20.3545 11.1231V11.0926C20.3537 11.0157 20.323 10.9421 20.269 10.8877C20.215 10.8333 20.142 10.8024 20.0656 10.8017H20.0469C19.9578 10.8052 19.869 10.7898 19.7863 10.7566C19.7035 10.7234 19.6286 10.673 19.5664 10.6087L19.4914 10.5107L19.2962 10.2916L19.0484 10.0007C18.9558 9.86597 18.8488 9.74189 18.7293 9.63068C18.6356 9.53636 18.4894 9.43769 18.3468 9.41882L18.1551 9.38835C18.0394 9.36429 17.9289 9.31957 17.8288 9.2563C17.7503 9.19609 17.6372 9.21495 17.5587 9.29403L17.4348 9.43043L17.375 9.46816C17.3072 9.48702 17.2438 9.4493 17.2136 9.37021C17.173 9.25018 17.1797 9.11902 17.2323 9.00382V8.94723C17.2323 8.87903 17.1761 8.83042 17.1163 8.84928H16.9622C16.7885 8.85573 16.6156 8.82353 16.4557 8.75496L16.3585 8.71361C16.2604 8.66454 16.1525 8.63872 16.043 8.63815C15.9416 8.63588 15.8416 8.662 15.7541 8.71361L15.7166 8.74408C15.6007 8.81831 15.4677 8.86129 15.3305 8.86887H15.015C14.8757 8.86743 14.7399 8.9126 14.6289 8.99729C14.5054 9.07192 14.3694 9.12307 14.2276 9.1482L13.969 9.18956C13.8421 9.21651 13.7229 9.27208 13.6203 9.35207C13.5267 9.45002 13.3912 9.50734 13.2673 9.54506L13.2183 9.56756C13.0608 9.61418 12.9251 9.71611 12.8358 9.85487L12.7198 9.97167C12.6869 10.0165 12.6691 10.0708 12.6691 10.1266C12.6691 10.1823 12.6869 10.2366 12.7198 10.2815C12.776 10.3794 12.8927 10.4063 13.0087 10.3794L13.1513 10.3192C13.2263 10.2931 13.3163 10.3192 13.3804 10.3569C13.4128 10.3833 13.45 10.4028 13.49 10.4145C13.5299 10.4262 13.5718 10.4298 13.6131 10.4251L13.853 10.399C13.9884 10.399 14.1231 10.399 14.2543 10.4367C14.4005 10.4861 14.5244 10.5347 14.6404 10.6297C14.7495 10.719 14.8828 10.7731 15.0229 10.785C15.1691 10.8039 15.3118 10.8343 15.4472 10.8829L15.5409 10.9018C15.6381 10.9323 15.7174 10.9961 15.7735 11.0948C15.8225 11.1739 15.8672 11.2878 15.8672 11.3857V11.4162C15.8672 11.5294 15.9644 11.6092 16.0624 11.6092H16.1186C16.2728 11.6092 16.4377 11.6281 16.5991 11.6774L16.6668 11.7035C16.7703 11.7421 16.8603 11.8104 16.9254 11.9001C17.004 11.9944 17.0493 12.0931 17.0796 12.1874L17.1099 12.3238C17.1358 12.4711 17.1473 12.6148 17.1473 12.77V12.8194C17.1473 12.9137 17.215 13.0124 17.3202 13.0501C17.4175 13.069 17.5306 13.1103 17.6393 13.1669L17.6847 13.1858C17.8122 13.2612 17.9361 13.3599 18.0298 13.4767L18.0788 13.5449C18.2063 13.6886 18.2704 13.8736 18.2704 14.0549V14.1231C18.2704 14.2704 18.2445 14.4141 18.1955 14.5505C18.158 14.6673 18.1955 14.8037 18.3194 14.8414L18.3871 14.8908C18.5333 14.9473 18.6572 15.0533 18.7509 15.1781C18.8481 15.3253 18.8863 15.4879 18.8863 15.662V15.9529C18.8676 16.0509 18.8409 16.1271 18.7927 16.1945C18.7444 16.262 18.7437 16.3607 18.7927 16.4289L18.8489 16.5232L18.8647 16.5123ZM12.7184 11.5584H12.6997C12.6586 11.5584 12.6399 11.6077 12.6507 11.6564L12.6881 11.8493C12.7256 12.0046 12.7443 12.1591 12.7667 12.3144C12.7854 12.4697 12.8603 12.6017 12.977 12.6997H13.0145C13.085 12.7555 13.1429 12.8259 13.1842 12.9061C13.2256 12.9863 13.2495 13.0745 13.2544 13.1647V13.6487C13.2356 13.743 13.2544 13.8416 13.3142 13.9207L13.3595 13.9664C13.448 14.0772 13.4992 14.2134 13.5058 14.3553L13.5317 14.8879C13.5317 15.0126 13.4568 15.1186 13.3401 15.1374L13.2464 15.1563C13.1787 15.1563 13.1492 15.2354 13.1492 15.3036C13.1492 15.379 13.1794 15.4661 13.2054 15.5452V15.564C13.2356 15.6584 13.2464 15.757 13.2356 15.855L13.1982 16.1154C13.1629 16.3046 13.0982 16.4871 13.0065 16.656L12.9388 16.7728C12.8971 16.8573 12.8283 16.9253 12.7436 16.9658C12.6981 16.9846 12.6573 17.0134 12.6242 17.05C12.591 17.0867 12.5664 17.1302 12.552 17.1776L12.4771 17.5251C12.4226 17.7307 12.3378 17.9268 12.2256 18.107H12.2069C12.0923 18.2652 11.9451 18.3966 11.7754 18.4923L11.6594 18.5714L11.3706 18.715C11.3246 18.7364 11.2846 18.769 11.2544 18.81C11.2242 18.8509 11.2047 18.8988 11.1977 18.9494L11.1523 19.2671C11.122 19.4601 11.055 19.6263 10.9196 19.7511L10.7957 19.8983L10.6494 20.042L10.5068 20.1973C10.3908 20.3337 10.2179 20.3903 10.0263 20.3634L9.68125 20.2952L9.36212 20.2539H9.27567C9.23821 20.2952 9.23029 20.3518 9.25694 20.4091C9.32466 20.5259 9.42984 20.6057 9.54582 20.6057L9.75617 20.6435C9.85342 20.6435 9.97012 20.6928 10.0638 20.7378C10.161 20.806 10.2554 20.8546 10.3714 20.8851H10.3901C10.5176 20.9344 10.6487 20.9417 10.7762 20.9344L10.9189 20.9119C11.0838 20.893 11.238 20.9119 11.3691 20.9721L11.4851 21.0099C11.5341 21.0287 11.609 21.0099 11.658 20.9605C11.713 20.9065 11.7781 20.864 11.8496 20.8357L11.9281 20.8169C12.052 20.7791 12.1759 20.7566 12.3107 20.7566H12.3892C12.5016 20.7566 12.6103 20.7791 12.7047 20.8357L12.7422 20.8546C12.8099 20.8851 12.8884 20.8546 12.9374 20.798C12.9633 20.7298 13.031 20.6616 13.0988 20.605L13.3386 20.4389L13.4928 20.3409L13.5713 20.2952C13.6741 20.2287 13.7943 20.1946 13.9164 20.1973L14.2615 20.1668C14.3286 20.1582 14.3917 20.13 14.4431 20.0856C14.4944 20.0413 14.5317 19.9827 14.5503 19.9172C14.5878 19.7699 14.644 19.6263 14.742 19.5015C14.8392 19.3731 14.9336 19.2671 15.0308 19.1728C15.1389 19.0817 15.2728 19.0274 15.4134 19.0176H15.4919C15.5666 19.0025 15.6337 18.9612 15.681 18.901C15.7284 18.8408 15.753 18.7656 15.7505 18.6889V18.0388C15.7692 17.9445 15.8067 17.8161 15.8629 17.721L16.0581 17.4301L16.133 17.3322C16.1928 17.2828 16.2303 17.219 16.298 17.1392L16.3916 17.0144C16.4514 16.9164 16.4514 16.7916 16.3729 16.7046C16.2828 16.6022 16.2265 16.4742 16.2115 16.3382V16.2968C16.1888 16.1354 16.1976 15.971 16.2375 15.8129V15.7672C16.2865 15.6388 16.3535 15.514 16.4327 15.3972C16.4694 15.352 16.4868 15.294 16.4811 15.236C16.4754 15.1779 16.4471 15.1245 16.4024 15.0874L16.2375 14.9437C16.1056 14.8233 16.0238 14.6572 16.0084 14.4787L15.9897 14.2857C15.9897 14.2254 15.9897 14.1609 15.9709 14.0927L15.9522 13.9454C15.9399 13.8669 15.9111 13.7919 15.8678 13.7254C15.8244 13.659 15.7675 13.6026 15.7008 13.5601L15.6331 13.5413C15.5263 13.4739 15.4344 13.3853 15.3629 13.2808C15.288 13.1829 15.2505 13.0465 15.2203 12.9108L15.19 12.7483C15.19 12.6881 15.1526 12.6503 15.0964 12.6235L14.6346 12.4762C14.5374 12.4573 14.443 12.3819 14.376 12.3137H14.3573C14.2975 12.2346 14.2031 12.2346 14.1433 12.2912L14.0497 12.3891C14.0309 12.4196 14.0086 12.4269 13.9819 12.4196C13.9222 12.4196 13.8847 12.3703 13.9034 12.3217C13.9142 12.246 13.905 12.1687 13.8766 12.0978C13.8483 12.0268 13.8019 11.9646 13.7421 11.9175L13.6146 11.8196L13.3293 11.6266C13.2508 11.5961 13.1341 11.6266 13.0966 11.7209L13.0591 11.7811C13.0591 11.8 13.0289 11.8073 13.0217 11.8189C12.9806 11.8189 12.9244 11.8189 12.9244 11.7695L12.8942 11.7202C12.8682 11.6636 12.8005 11.6259 12.74 11.607L12.7184 11.5584ZM11.5665 12.5255L11.5175 12.4762C11.4685 12.4385 11.4203 12.4457 11.3713 12.4951C11.3022 12.6101 11.2502 12.7348 11.2171 12.8651V12.8839C11.1912 13.0087 11.0745 13.0958 10.9585 13.0769H10.8461C10.7815 13.0783 10.7201 13.1052 10.6752 13.152C10.6302 13.1987 10.6055 13.2615 10.6062 13.3265C10.6062 13.5006 10.5464 13.6777 10.4413 13.8104L10.3851 13.8707C10.2841 13.9933 10.15 14.0838 9.99894 14.1311L9.92402 14.15C9.87501 14.1626 9.83074 14.1893 9.79668 14.227C9.76262 14.2646 9.74027 14.3115 9.7324 14.3618C9.7324 14.4598 9.67261 14.5585 9.59696 14.6339L9.49971 14.7094C9.38373 14.8378 9.21084 14.906 9.03795 14.9249L8.55745 14.9742C8.40329 14.9742 8.27218 15.0685 8.17493 15.2158C8.07767 15.3594 7.93504 15.4574 7.7924 15.4763L7.57845 15.4951C7.41841 15.5169 7.25582 15.5105 7.09795 15.4763L7.0043 15.4574L6.74136 15.3892C6.70094 15.3745 6.65692 15.3732 6.61572 15.3855C6.57451 15.3977 6.53827 15.4229 6.51228 15.4574L6.41503 15.5822C6.35633 15.651 6.28198 15.7045 6.19831 15.7381C6.11464 15.7717 6.02414 15.7844 5.93453 15.7752L5.3114 15.6997C5.21414 15.6997 5.1385 15.6504 5.05278 15.6018C4.95553 15.5452 4.88781 15.477 4.82009 15.4088L4.58021 15.1178C4.55427 15.099 4.50529 15.0874 4.4563 15.099L4.32087 15.1556L3.78418 15.292C3.68693 15.3224 3.56302 15.292 3.46865 15.2354C3.3714 15.1563 3.2547 15.1374 3.13872 15.1374H3.01481C2.98668 15.1446 2.96027 15.1575 2.93717 15.1752C2.91407 15.1929 2.89475 15.2151 2.88036 15.2405C2.86598 15.2659 2.85681 15.2939 2.85343 15.323C2.85004 15.352 2.8525 15.3814 2.86065 15.4095L2.89811 15.6025C2.92836 15.7004 2.92044 15.8144 2.87217 15.9123C2.82391 16.0102 2.83471 16.1053 2.89811 16.2032L2.9579 16.2787C3.03282 16.3955 3.14952 16.4942 3.24677 16.5885C3.34042 16.6864 3.4384 16.7815 3.51332 16.9099L3.65955 17.1704C3.69122 17.235 3.74047 17.2892 3.80157 17.3267C3.86266 17.3642 3.93308 17.3835 4.00462 17.3822C4.14725 17.3822 4.29349 17.4316 4.40587 17.5259L4.69475 17.7979C4.77327 17.8661 4.88637 17.877 4.96489 17.8168L5.01388 17.7979C5.07007 17.7979 5.10753 17.8357 5.10753 17.8959V17.9452C5.10753 18.07 5.20478 18.1868 5.32869 18.2325L5.7602 18.3305C5.91436 18.3798 6.0678 18.4284 6.21404 18.5235H6.28896C6.30836 18.5234 6.32754 18.5192 6.34521 18.5111C6.36287 18.5031 6.37864 18.4913 6.39144 18.4766C6.40425 18.4619 6.41381 18.4447 6.41949 18.426C6.42517 18.4073 6.42684 18.3876 6.42439 18.3682V18.0316C6.42439 17.9336 6.46185 17.8349 6.54037 17.7972L6.58936 17.7784C6.63474 17.7972 6.68301 17.8349 6.66428 17.8763V18.0388C6.66428 18.1636 6.70174 18.2804 6.78818 18.3675C6.82908 18.4112 6.88171 18.4419 6.93967 18.4559C6.99762 18.47 7.05838 18.4667 7.11452 18.4466C7.2305 18.3972 7.3472 18.3863 7.47111 18.3972L7.8277 18.4161C8.00059 18.435 8.16196 18.4161 8.3082 18.3479C8.48109 18.2913 8.62373 18.2115 8.75844 18.1063L8.81463 18.0686L9.1035 17.8081C9.19238 17.716 9.31384 17.663 9.44136 17.6608H9.82389C9.92118 17.6479 10.0116 17.6032 10.0813 17.5336C10.151 17.4641 10.1962 17.3734 10.21 17.2756L10.2475 17.0826C10.2475 16.9542 10.3037 16.841 10.3901 16.7423C10.4874 16.6444 10.5817 16.587 10.679 16.5493L10.795 16.5C10.8764 16.4641 10.9492 16.4112 11.0087 16.3448C11.0682 16.2784 11.113 16.1999 11.14 16.1147L11.1962 15.8804C11.2452 15.6874 11.3425 15.4951 11.4851 15.3703L11.5038 15.3478C11.6198 15.2535 11.6393 15.0605 11.5636 14.9249L11.5334 14.8567C11.4997 14.8024 11.4795 14.7409 11.4742 14.6771C11.4689 14.6134 11.4788 14.5494 11.5031 14.4903C11.5521 14.3539 11.6004 14.2371 11.676 14.1202L11.7732 13.9838C11.8107 13.9084 11.8107 13.7909 11.7545 13.7234C11.6936 13.6472 11.6594 13.5528 11.6573 13.4549L11.6385 13.3185V12.9899C11.6528 12.8818 11.6425 12.7719 11.6083 12.6685L11.5708 12.5553L11.5665 12.5255ZM10.1934 11.7884V11.7623C10.1934 11.6643 10.1337 11.607 10.058 11.607H9.8066C9.71753 11.6259 9.62552 11.6259 9.53645 11.607H9.10494C8.88378 11.607 8.67343 11.5657 8.46308 11.5091L8.2304 11.4525L8.03877 11.3923L7.60726 11.2486C7.4965 11.2168 7.39374 11.1615 7.3058 11.0866C7.21787 11.0117 7.14677 10.9187 7.09723 10.814L7.04824 10.7161C6.98053 10.5724 6.83789 10.4933 6.69526 10.5231C6.53029 10.5231 6.36892 10.5231 6.21476 10.4476L6.09878 10.3983C5.87762 10.3003 5.71625 10.1073 5.71625 9.84688L5.67519 9.58642C5.64926 9.45002 5.56281 9.32596 5.44611 9.27662C5.31108 9.21408 5.18186 9.13954 5.05998 9.05388L5.0146 9.02341C4.86274 8.9064 4.74584 8.74951 4.67674 8.56996L4.65801 8.51336C4.60857 8.3567 4.6021 8.1895 4.63928 8.02944L4.65801 7.96922C4.69547 7.84443 4.70699 7.71964 4.70699 7.58396C4.70555 7.46306 4.65689 7.3476 4.57156 7.26255L4.43613 7.13776C4.35946 7.07538 4.29677 6.99736 4.2522 6.90882C4.20762 6.82029 4.18217 6.72325 4.17751 6.62409C4.15553 6.41767 4.16183 6.20918 4.19624 6.00449V5.9479C4.19605 5.89677 4.1758 5.8478 4.13991 5.81164C4.10401 5.77549 4.05538 5.7551 4.00462 5.75491H3.97436C3.85046 5.75491 3.74528 5.83036 3.68549 5.9479C3.63769 6.07603 3.56633 6.19394 3.47514 6.29543L3.43768 6.34476L3.1488 6.6357C3.05155 6.73002 2.99464 6.8773 2.97591 7.02095C2.95793 7.16829 2.91886 7.31223 2.85993 7.44829L2.8412 7.49762C2.79483 7.61289 2.71842 7.7134 2.62004 7.78856C2.57282 7.82486 2.53395 7.87102 2.5061 7.92387C2.47824 7.97671 2.46207 8.035 2.45867 8.09473L2.43994 8.54093C2.43994 8.73392 2.40969 8.92982 2.34269 9.12281L2.32396 9.19826C2.29939 9.25668 2.29769 9.3223 2.31921 9.38193C2.34072 9.44156 2.38386 9.49078 2.43994 9.51967L2.8412 9.6938L2.87866 9.71266C2.90891 9.71266 2.91972 9.73153 2.92764 9.762C2.9579 9.79973 2.92764 9.85632 2.89739 9.85632L2.80374 9.90565C2.74755 9.92452 2.70649 9.98473 2.68776 10.0529L2.66903 10.1473V10.1661L2.57177 10.7103C2.55304 10.7857 2.55304 10.8728 2.55304 10.9598C2.5531 10.9972 2.56415 11.0336 2.5848 11.0646C2.60545 11.0956 2.63476 11.1198 2.66903 11.134L2.87938 11.2319C2.97663 11.2885 3.09333 11.3567 3.16825 11.4249L3.2655 11.504C3.29552 11.5435 3.33392 11.5757 3.37788 11.5983L3.41895 11.636C3.4851 11.695 3.53226 11.7726 3.55438 11.8588L3.64803 12.2934C3.64803 12.4102 3.74528 12.5088 3.83965 12.535L3.99381 12.5843C3.99381 12.5843 4.02407 12.5843 4.0428 12.6032L4.23442 12.6634C4.38858 12.7127 4.5233 12.7998 4.64 12.913C4.75598 13.0109 4.86908 13.1357 4.96633 13.2721L5.00379 13.3098C5.08231 13.4078 5.19541 13.4571 5.3114 13.4266C5.42738 13.3962 5.55128 13.3889 5.67519 13.3889H5.82143C5.91508 13.3889 6.04259 13.415 6.14776 13.4832C6.24141 13.5434 6.36892 13.5812 6.48202 13.6305H6.51228C6.56733 13.6527 6.62697 13.6609 6.6859 13.6543C6.74484 13.6477 6.80126 13.6266 6.85014 13.5928C6.94831 13.5149 7.07024 13.4736 7.1952 13.476L7.64544 13.5021C7.74269 13.5021 7.83706 13.4832 7.88533 13.4078H7.90406L8.06903 13.2525L8.11801 13.2032C8.15604 13.1593 8.20269 13.1239 8.25503 13.0992C8.30736 13.0744 8.36423 13.0609 8.42202 13.0595H8.85713C8.96951 13.0595 9.07829 12.9616 9.12367 12.8665C9.1489 12.816 9.18535 12.7719 9.2302 12.7378C9.27505 12.7037 9.32709 12.6805 9.38229 12.6699L9.57751 12.6322C9.65243 12.6322 9.72015 12.564 9.75041 12.4769C9.77337 12.3871 9.82316 12.3066 9.89304 12.2462L10.0472 12.0909C10.1351 12.0092 10.1932 11.9001 10.2122 11.7811L10.1934 11.7884Z" fill="#262626"/>
</svg>
