<svg width="13" height="13" viewBox="0 0 13 13" fill="none" xmlns="http://www.w3.org/2000/svg">
<path d="M10.9365 3.50794L1.77976 12.6905C1.57341 12.8968 1.3282 13 1.04413 13C0.760741 13 0.515873 12.8968 0.309524 12.6905C0.103174 12.4841 0 12.2389 0 11.9548C0 11.6715 0.103174 11.4266 0.309524 11.2202L9.49206 2.06349H1.65079C1.35847 2.06349 1.11325 1.96479 0.915159 1.76738C0.717751 1.56929 0.619048 1.32407 0.619048 1.03175C0.619048 0.739418 0.717751 0.494207 0.915159 0.296111C1.11325 0.0987039 1.35847 0 1.65079 0H11.9683C12.2606 0 12.5054 0.0987039 12.7029 0.296111C12.901 0.494207 13 0.739418 13 1.03175V11.3492C13 11.6415 12.901 11.8864 12.7029 12.0838C12.5054 12.2819 12.2606 12.381 11.9683 12.381C11.6759 12.381 11.4311 12.2819 11.2337 12.0838C11.0356 11.8864 10.9365 11.6415 10.9365 11.3492V3.50794Z" fill="white"/>
</svg>
