<svg width="23" height="14" viewBox="0 0 23 14" fill="none" xmlns="http://www.w3.org/2000/svg">
<path fill-rule="evenodd" clip-rule="evenodd" d="M22.4724 0.908481C22.6315 0.385242 22.4724 0 21.7106 0H19.195C18.5549 0 18.2597 0.332535 18.0997 0.699569C18.0997 0.699569 16.8203 3.76234 15.0081 5.7518C14.4217 6.3287 14.1552 6.51174 13.8352 6.51174C13.6751 6.51174 13.4346 6.3287 13.4346 5.8045V0.908481C13.4346 0.279827 13.2583 0 12.7254 0H8.76952C8.36991 0 8.12937 0.291327 8.12937 0.56828C8.12937 1.16339 9.03594 1.30139 9.12889 2.97652V6.6162C9.12889 7.41447 8.98227 7.55917 8.66219 7.55917C7.80929 7.55917 5.73455 4.48203 4.50311 0.961188C4.26449 0.275994 4.023 0 3.37997 0H0.862482C0.143747 0 0 0.332535 0 0.699569C0 1.35314 0.852899 4.5999 3.97221 8.89411C6.05175 11.8265 8.97939 13.4164 11.6464 13.4164C13.2458 13.4164 13.4432 13.0637 13.4432 12.4552V10.2386C13.4432 9.53234 13.5946 9.39147 14.1016 9.39147C14.4753 9.39147 15.1145 9.57547 16.6076 10.989C18.3134 12.6651 18.5942 13.4164 19.5544 13.4164H22.07C22.7887 13.4164 23.149 13.0637 22.942 12.3661C22.7139 11.6723 21.8994 10.6651 20.8194 9.47005C20.2329 8.78965 19.3531 8.05654 19.0858 7.68951C18.713 7.21897 18.8194 7.0091 19.0858 6.59032C19.0858 6.59032 22.1533 2.34883 22.4724 0.908481Z" fill="#262626"/>
</svg>
